<svg xmlns="http://www.w3.org/2000/svg" viewBox="0 0 118 118"><defs><style>.cls-1{fill:#8d3783;}.cls-2{fill:#f2ccf5;}.cls-3{fill:#fff;}</style></defs><g id="Capa_2" data-name="Capa 2"><g id="Capa_1-2" data-name="Capa 1"><rect class="cls-1" width="118" height="118" rx="9.05"/><path class="cls-2" d="M38.1,39a54.27,54.27,0,0,0-11.76,1c-3.28.75-9.24,3.68-9.24,11.43,0,6.44,5.21,10.15,9.22,11a58.41,58.41,0,0,0,11.78,1h8.1l6.42-8.7c-13.32,0-6.15,0-18.71,0a24,24,0,0,1-4.57-.42A3.15,3.15,0,0,1,29.45,48a27.17,27.17,0,0,1,5-.39c13.53.07,23.28.1,23.28.1L64.17,39c-2.14,0-13,0-26.07,0Z"/><path class="cls-2" d="M79.9,79a54.27,54.27,0,0,0,11.76-1c3.28-.75,9.24-3.68,9.24-11.43,0-6.44-5.21-10.15-9.22-11a58.41,58.41,0,0,0-11.78-1H71.8l-6.42,8.7c13.32,0,6.15,0,18.71,0a24,24,0,0,1,4.57.42A3.15,3.15,0,0,1,88.55,70a27.17,27.17,0,0,1-5,.39c-13.53-.07-23.28-.1-23.28-.1L53.83,79c2.14,0,13,0,26.07,0Z"/><polygon class="cls-3" points="80.77 33.74 43.89 84.26 37.23 84.26 74.11 33.74 80.77 33.74"/></g></g></svg>