<svg xmlns="http://www.w3.org/2000/svg" viewBox="0 0 118 118"><defs><style>.cls-1{fill:#7828f0;}.cls-2{fill:#c19cf8;}.cls-3{fill:#e6daf7;}</style></defs><g id="Capa_2" data-name="Capa 2"><g id="Capa_1-2" data-name="Capa 1"><rect class="cls-1" width="118" height="118" rx="9.05"/><path class="cls-2" d="M33.71,46.6a3.45,3.45,0,0,1,3-3.41,29.47,29.47,0,0,1,5.46-.43l17.86.1h3.52v0c8.93,0,.51,0,12.88,0a26.46,26.46,0,0,1,5,.46,3.42,3.42,0,0,1,2.88,3.36H94.74c0-.07,0-.14,0-.21,0-7-5.67-11.07-10-12a63.89,63.89,0,0,0-12.85-1.06H70.56v0c-2.33,0-10.12,0-24.43,0a59.76,59.76,0,0,0-12.83,1c-3.54.81-10,4-10.06,12.27H33.71Z"/><path class="cls-2" d="M84.29,65.91v0a3.45,3.45,0,0,1-3,3.41,29.48,29.48,0,0,1-5.46.42L58,69.69H54.45c-8.93,0-.51,0-12.88,0a26.46,26.46,0,0,1-5-.46,3.42,3.42,0,0,1-2.88-3.36H23.26c0,.07,0,.13,0,.21,0,7,5.67,11.07,10,12a63.1,63.1,0,0,0,12.85,1.07h1.29v0c2.33,0,10.12,0,24.43,0a59.07,59.07,0,0,0,12.83-1.06c3.54-.81,10-4,10.06-12.26Z"/><circle class="cls-3" cx="46.74" cy="55.77" r="7.08"/><circle class="cls-3" cx="72.12" cy="55.77" r="7.08"/></g></g></svg>